<svg width="36" height="36" viewBox="0 0 36 36" fill="none" xmlns="http://www.w3.org/2000/svg">
<g clip-path="url(#clip0_35_886)">
<g clip-path="url(#clip1_35_886)">
<g clip-path="url(#clip2_35_886)">
<path d="M11.1703 23.6696V14.0826H8.95399V11.6257H14.2284V23.6696H11.1703Z" fill="#EB5757"/>
<path d="M25.7219 14.7353C25.7219 15.7833 25.155 16.7111 24.21 17.2265C25.5328 17.7763 26.3576 18.9274 26.3576 20.2675C26.3576 22.4322 24.4333 23.8067 21.4267 23.8067C18.42 23.8067 16.4958 22.4493 16.4958 20.3191C16.4958 18.9446 17.3892 17.7763 18.7808 17.2265C17.7672 16.6595 17.1143 15.6975 17.1143 14.6495C17.1143 12.7251 18.7981 11.5054 21.4096 11.5054C24.0554 11.5054 25.7219 12.7596 25.7219 14.7353ZM19.3822 20.0099C19.3822 21.0236 20.1038 21.5905 21.4267 21.5905C22.7496 21.5905 23.4883 21.0409 23.4883 20.0099C23.4883 19.0135 22.7496 18.4464 21.4267 18.4464C20.1037 18.4464 19.3822 19.0134 19.3822 20.0099ZM19.6915 14.9071C19.6915 15.7664 20.31 16.2471 21.4267 16.2471C22.5435 16.2471 23.162 15.7662 23.162 14.9071C23.162 14.014 22.5435 13.5156 21.4267 13.5156C20.3098 13.5156 19.6915 14.014 19.6915 14.9071Z" fill="#EB5757"/>
<path d="M31.4468 12.9854C31.9553 14.4859 32.2131 16.0554 32.2131 17.6562C32.2131 25.6829 25.6829 32.2131 17.6562 32.2131C9.62937 32.2131 3.09902 25.6829 3.09902 17.6562C3.09902 9.62937 9.62928 3.09933 17.6561 3.09933C19.2571 3.09933 20.8265 3.35704 22.3269 3.86569V0.626224C20.8114 0.210781 19.2462 0 17.6562 0C7.92058 0 0 7.92058 0 17.6562C0 27.3919 7.92058 35.3125 17.6562 35.3125C27.3917 35.3125 35.3121 27.3919 35.3121 17.6562C35.3121 16.0663 35.1015 14.501 34.6861 12.9854H31.4468Z" fill="#EB5757"/>
<path d="M30.5658 4.73633V1.35083H28.1314V4.73633H24.7662V7.17057H28.1314V10.5559H30.5658V7.17057H33.951V4.73633H30.5658Z" fill="#EB5757"/>
</g>
</g>
</g>
<defs>
<clipPath id="clip0_35_886">
<rect width="35.3125" height="35.3125" fill="white"/>
</clipPath>
<clipPath id="clip1_35_886">
<rect width="35.3125" height="35.3125" fill="white"/>
</clipPath>
<clipPath id="clip2_35_886">
<rect width="35.3125" height="35.3125" fill="white"/>
</clipPath>
</defs>
</svg>
